<svg width="51" height="52" viewBox="0 0 51 52" fill="none" xmlns="http://www.w3.org/2000/svg">
<path d="M45.4514 37.2597C35.0896 52.1956 26.5682 54.8627 14.5195 46.9814C18.8603 44.9144 24.5212 44.581 25.7814 38.46C31.069 34.9661 36.9966 31.9789 37.1767 24.3643C42.5909 26.9647 45.9248 30.8987 45.4514 37.2597Z" fill="#7B2681"/>
<path d="M25.7877 38.4601C24.5275 44.5812 18.8599 44.9145 14.5192 46.9815C-1.56355 35.0729 -3.90397 26.3114 5.61097 13.6426C5.65097 19.1768 5.81768 24.6444 12.8722 26.1047C15.646 31.7923 19.6333 36.2464 25.7877 38.4601Z" fill="#424192"/>
<path d="M12.8706 26.0712C5.81609 24.611 5.64938 19.1434 5.60938 13.6091C9.61005 8.80829 13.5441 3.64074 19.6984 1.70708C25.9795 -0.293253 32.1405 0.37352 36.628 6.20117C30.1535 5.15433 26.5129 9.28171 22.999 13.6358C19.1583 17.4097 14.991 20.9037 12.8706 26.0712Z" fill="#32529F"/>
<path d="M23 13.6361C26.5139 9.28203 30.1545 5.15465 36.629 6.20149C51.9649 18.2902 53.8652 25.0247 45.4504 37.2601C45.9239 30.899 42.59 26.965 37.1824 24.3646C34.0019 18.7503 29.9545 14.2895 23 13.6361Z" fill="#BF1645"/>
</svg>
